<svg width="193" height="40" viewBox="0 0 193 40" fill="none" xmlns="http://www.w3.org/2000/svg">
<path d="M42.284 26.8253C42.3301 25.4878 42.1092 24.1546 41.6342 22.9035C41.1592 21.6524 40.4395 20.5085 39.5174 19.5386C38.6084 18.5928 37.5117 17.8475 36.2976 17.3507C35.0835 16.8538 33.7789 16.6164 32.4677 16.6536C31.1614 16.614 29.8614 16.8505 28.6527 17.3476C27.4441 17.8448 26.3539 18.5914 25.4535 19.5386C24.5211 20.5031 23.7921 21.6452 23.3097 22.8969C22.8274 24.1486 22.6015 25.4846 22.6454 26.8253C22.597 28.1666 22.8209 29.5037 23.3035 30.7561C23.7861 32.0085 24.5175 33.1501 25.4535 34.112C26.3548 35.0581 27.4451 35.8039 28.6536 36.3009C29.862 36.798 31.1615 37.0352 32.4677 36.9971C33.7788 37.0332 35.083 36.7952 36.297 36.2984C37.5109 35.8016 38.6077 35.0569 39.5174 34.112C40.4395 33.1422 41.1592 31.9983 41.6342 30.7471C42.1092 29.496 42.3301 28.1628 42.284 26.8253ZM38.6999 26.8253C38.7819 28.6564 38.144 30.4468 36.9226 31.8134C36.3503 32.4164 35.6613 32.8967 34.8974 33.2248C34.1335 33.553 33.3109 33.7222 32.4795 33.7222C31.6482 33.7222 30.8255 33.553 30.0616 33.2248C29.2978 32.8967 28.6087 32.4164 28.0364 31.8134C26.8128 30.4481 26.1745 28.6567 26.2592 26.8253C26.1779 25.0068 26.8164 23.2296 28.0364 21.8786C28.6018 21.2639 29.2886 20.7732 30.0534 20.4376C30.8182 20.1019 31.6443 19.9286 32.4795 19.9286C33.3147 19.9286 34.1408 20.1019 34.9056 20.4376C35.6704 20.7732 36.3572 21.2639 36.9226 21.8786C38.1297 23.2355 38.7571 25.0113 38.6702 26.8253H38.6999Z" fill="#053940"/>
<path d="M20.4535 26.8253C20.4996 25.4878 20.2787 24.1546 19.8037 22.9035C19.3287 21.6523 18.6091 20.5084 17.6869 19.5386C16.7764 18.5932 15.6785 17.8483 14.4636 17.3515C13.2486 16.8547 11.9434 16.617 10.6313 16.6535C9.32587 16.614 8.02682 16.8506 6.81912 17.3478C5.61143 17.8449 4.52231 18.5915 3.62304 19.5386C2.69069 20.5031 1.96168 21.6451 1.4793 22.8969C0.996918 24.1486 0.771013 25.4845 0.814999 26.8253C0.766584 28.1666 0.990443 29.5037 1.47306 30.7561C1.95568 32.0085 2.68706 33.1501 3.62304 34.112C4.52323 35.0579 5.61251 35.8036 6.81998 36.3007C8.02746 36.7978 9.32607 37.035 10.6313 36.997C11.943 37.0307 13.2474 36.7916 14.4619 36.295C15.6764 35.7984 16.7746 35.055 17.6869 34.112C18.6069 33.1406 19.3251 31.9965 19.8 30.7457C20.2749 29.495 20.497 28.1624 20.4535 26.8253V26.8253ZM16.899 26.8253C16.9837 28.6567 16.3454 30.4481 15.1218 31.8134C14.5561 32.438 13.8617 32.9325 13.0865 33.2628C12.3112 33.5931 11.4736 33.7515 10.6313 33.7269C9.79833 33.7445 8.97127 33.5833 8.20585 33.2543C7.44044 32.9252 6.75445 32.4359 6.19412 31.8193C4.97051 30.454 4.33225 28.6626 4.41688 26.8312C4.33557 25.0127 4.97411 23.2355 6.19412 21.8846C6.75164 21.2617 7.43612 20.7654 8.20151 20.4292C8.96689 20.093 9.7954 19.9247 10.6313 19.9355C11.4677 19.9231 12.2971 20.0901 13.0636 20.4253C13.83 20.7605 14.5157 21.256 15.0744 21.8786C16.3009 23.2268 16.9459 25.0043 16.8694 26.8253H16.899Z" fill="#053940"/>
<path d="M33.7532 28.3359C34.9016 28.3359 35.8326 27.4049 35.8326 26.2565C35.8326 25.1081 34.9016 24.1771 33.7532 24.1771C32.6048 24.1771 31.6738 25.1081 31.6738 26.2565C31.6738 27.4049 32.6048 28.3359 33.7532 28.3359Z" fill="#053940"/>
<path d="M11.9228 28.3359C13.0712 28.3359 14.0021 27.4049 14.0021 26.2565C14.0021 25.1081 13.0712 24.1771 11.9228 24.1771C10.7744 24.1771 9.84338 25.1081 9.84338 26.2565C9.84338 27.4049 10.7744 28.3359 11.9228 28.3359Z" fill="#053940"/>
<path d="M64.7843 27.5309C63.9324 27.5309 63.146 27.367 62.3596 27.0394C60.2626 26.1547 58.5259 23.9921 58.5259 20.9776C58.5259 20.0929 58.6898 19.241 59.0174 18.4218C59.9021 16.292 61.8354 14.4571 64.7843 14.4571C66.9469 14.4571 68.5525 15.4073 69.4699 16.6852C69.6993 17.0456 69.9287 17.5699 70.0925 17.9303H75.8266C75.3024 15.3745 74.0245 13.343 71.9602 11.803C69.9287 10.2957 67.5367 9.50935 64.7843 9.50935C61.2783 9.50935 58.4276 11.0166 56.5272 12.8515C54.6595 14.7192 53.1195 17.5044 53.1195 20.9776C53.1195 24.4836 54.6595 27.3015 56.5272 29.1364C58.4276 31.0041 61.2783 32.4458 64.7843 32.4458C66.1605 32.4458 67.4712 32.2492 68.7163 31.856C72.4517 30.7092 75.1385 27.8913 75.8594 23.73H70.2563C69.4372 25.9909 67.5695 27.5309 64.7843 27.5309ZM87.5135 19.7325C89.2829 19.7325 90.3642 21.1742 90.3642 22.9763V31.9543H95.574V21.8623C95.574 17.9303 93.1493 15.0141 89.2501 15.0141C87.1858 15.0141 85.482 15.7022 84.1385 17.0784V8.36253H78.8959V31.9543H84.1385V24.3198C84.1385 21.6985 85.1215 19.7325 87.5135 19.7325ZM107.243 15.0796C104.491 15.0796 102.296 16.1282 100.788 17.5044C99.2812 18.8805 98.1344 21.0104 98.1344 23.7627C98.1344 26.6462 99.5106 29.0709 101.28 30.4471C102.951 31.6922 104.753 32.4458 107.243 32.4458C108.423 32.4458 109.57 32.2165 110.684 31.8233C113.731 30.6437 116.254 27.9241 116.254 23.7627C116.254 22.5176 115.959 21.2725 115.435 20.0929C114.157 17.2095 111.11 15.0796 107.243 15.0796ZM103.18 23.7627C103.18 21.3708 104.884 19.5031 107.243 19.5031C109.439 19.5031 111.208 21.4691 111.208 23.7627C111.208 26.0892 109.472 28.0224 107.243 28.0224C104.917 28.0224 103.18 26.1547 103.18 23.7627ZM126.987 15.0796C124.234 15.0796 122.039 16.1282 120.532 17.5044C119.024 18.8805 117.877 21.0104 117.877 23.7627C117.877 26.6462 119.254 29.0709 121.023 30.4471C122.694 31.6922 124.496 32.4458 126.987 32.4458C128.166 32.4458 129.313 32.2165 130.427 31.8233C133.474 30.6437 135.997 27.9241 135.997 23.7627C135.997 22.5176 135.702 21.2725 135.178 20.0929C133.9 17.2095 130.853 15.0796 126.987 15.0796ZM122.923 23.7627C122.923 21.3708 124.627 19.5031 126.987 19.5031C129.182 19.5031 130.951 21.4691 130.951 23.7627C130.951 26.0892 129.215 28.0224 126.987 28.0224C124.66 28.0224 122.923 26.1547 122.923 23.7627ZM146.5 27.7275C144.698 27.7275 143.682 26.253 143.682 24.4836V15.5056H138.472V25.5977C138.472 26.6134 138.603 27.5309 138.931 28.3828C139.75 30.742 141.716 32.4458 144.829 32.4458C147.024 32.4458 148.794 31.5939 149.908 30.3816V31.9543H155.151V15.5056H149.908V23.1402C149.908 25.827 148.925 27.7275 146.5 27.7275ZM158.107 20.5844C158.107 23.4678 160.303 24.9096 162.891 25.3683L166.233 26.0236C167.347 26.2202 167.872 26.6462 167.872 27.236C167.872 28.1534 166.79 28.5466 165.742 28.5466C164.792 28.5466 163.776 28.2845 163.35 27.6947L157.747 27.6619C158.304 31.0369 161.449 32.4458 165.48 32.4458C169.412 32.4458 172.918 30.8075 172.918 26.9083C172.918 24.0904 170.919 22.5176 168.363 21.9606L164.497 21.1742C163.677 21.0104 163.252 20.6172 163.252 20.0274C163.252 19.1754 164.103 18.7495 165.119 18.7495C166.135 18.7495 166.921 19.1427 167.413 19.6997L172.655 19.7325C172 16.718 169.018 15.0141 165.185 15.0141C161.417 15.0141 158.107 16.9801 158.107 20.5844ZM191.452 27.3343L186.799 26.3841C186.111 27.6292 184.931 28.2845 183.293 28.2845C181.36 28.2845 180.147 26.7773 179.754 25.1062H191.812L191.845 23.73C191.812 22.4521 191.583 21.2725 191.124 20.1912C189.945 17.275 187.323 15.0469 183.326 15.0469C182.179 15.0469 181.065 15.2435 179.984 15.6694C177.002 16.8818 174.61 19.6014 174.61 23.7627C174.61 26.4824 175.724 28.6449 177.166 30.0539C178.607 31.4301 180.704 32.4786 183.293 32.4786C187.618 32.4786 190.207 30.3816 191.452 27.3343ZM186.635 21.8951H179.853C180.279 20.4861 181.622 19.3065 183.326 19.3065C185.095 19.3065 186.242 20.4206 186.635 21.8951Z" fill="#053940"/>
<path d="M34.5234 14.1772C34.4582 13.3424 34.2072 12.5328 33.7888 11.8075C33.2166 10.7672 32.4551 9.84303 31.5435 9.08241C29.4523 7.30517 26.2118 5.8893 21.4369 5.8893H21.277C16.5199 5.88338 13.2557 7.29332 11.1704 9.07649C10.2582 9.83885 9.49671 10.7651 8.92515 11.8075C8.48151 12.5651 8.22746 13.4187 8.18463 14.2957C8.98619 14.1051 9.80741 14.0097 10.6313 14.0113C10.9512 14.0113 11.2593 14.0113 11.5673 14.0528C11.6401 13.8228 11.7354 13.6006 11.8517 13.3893C12.2318 12.7125 12.7316 12.1103 13.3268 11.612C14.7427 10.4272 17.2071 9.24236 21.277 9.24236H21.4369C25.5127 9.24236 27.9535 10.4272 29.3871 11.612C29.9823 12.1103 30.4821 12.7125 30.8622 13.3893C30.9785 13.6006 31.0738 13.8228 31.1466 14.0528C31.1458 14.0646 31.1458 14.0765 31.1466 14.0883C31.5716 14.0413 31.9987 14.0156 32.4262 14.0113C33.129 13.9981 33.8314 14.0537 34.5234 14.1772V14.1772Z" fill="#053940"/>
</svg>
