<svg width="122" height="26" viewBox="0 0 122 26" fill="none" xmlns="http://www.w3.org/2000/svg">
<path d="M26.7976 17.1585C26.8266 16.318 26.6878 15.4801 26.3893 14.6939C26.0908 13.9077 25.6385 13.1888 25.059 12.5794C24.4878 11.985 23.7986 11.5167 23.0357 11.2044C22.2727 10.8922 21.4529 10.743 20.6289 10.7664C19.808 10.7415 18.991 10.8901 18.2315 11.2025C17.4719 11.5149 16.7869 11.9841 16.221 12.5794C15.6351 13.1855 15.177 13.9032 14.8739 14.6898C14.5707 15.4764 14.4288 16.3159 14.4564 17.1585C14.426 18.0013 14.5666 18.8417 14.8699 19.6287C15.1732 20.4157 15.6328 21.1331 16.221 21.7376C16.7874 22.3321 17.4726 22.8008 18.232 23.1131C18.9914 23.4255 19.8081 23.5745 20.6289 23.5506C21.4528 23.5733 22.2724 23.4237 23.0353 23.1115C23.7981 22.7994 24.4874 22.3314 25.059 21.7376C25.6385 21.1281 26.0908 20.4092 26.3893 19.623C26.6878 18.8368 26.8266 17.999 26.7976 17.1585ZM24.5453 17.1585C24.5969 18.3091 24.196 19.4343 23.4284 20.2931C23.0688 20.672 22.6358 20.9738 22.1558 21.18C21.6757 21.3863 21.1588 21.4926 20.6363 21.4926C20.1139 21.4926 19.5969 21.3863 19.1169 21.18C18.6368 20.9738 18.2038 20.672 17.8442 20.2931C17.0752 19.4351 16.6741 18.3094 16.7273 17.1585C16.6762 16.0157 17.0775 14.8988 17.8442 14.0499C18.1995 13.6636 18.6311 13.3552 19.1117 13.1443C19.5923 12.9333 20.1115 12.8244 20.6363 12.8244C21.1612 12.8244 21.6803 12.9333 22.1609 13.1443C22.6415 13.3552 23.0731 13.6636 23.4284 14.0499C24.187 14.9026 24.5812 16.0185 24.5267 17.1585H24.5453Z" fill="white"/>
<path d="M13.0789 17.1585C13.1079 16.318 12.9691 15.4801 12.6706 14.6939C12.3721 13.9077 11.9199 13.1888 11.3404 12.5794C10.7681 11.9853 10.0782 11.5171 9.31473 11.2049C8.55124 10.8927 7.73099 10.7434 6.90645 10.7663C6.0861 10.7415 5.26975 10.8902 4.51081 11.2026C3.75187 11.515 3.06745 11.9842 2.50233 12.5794C1.91642 13.1855 1.4583 13.9032 1.15516 14.6898C0.852028 15.4764 0.710065 16.3159 0.737706 17.1585C0.707281 18.0013 0.847958 18.8416 1.15125 19.6287C1.45453 20.4157 1.91414 21.1331 2.50233 21.7375C3.06803 22.332 3.75255 22.8006 4.51135 23.113C5.27015 23.4254 6.08622 23.5745 6.90645 23.5506C7.73075 23.5717 8.55046 23.4215 9.31369 23.1094C10.0769 22.7973 10.767 22.3302 11.3404 21.7375C11.9185 21.1271 12.3698 20.4081 12.6682 19.6221C12.9667 18.8361 13.1062 17.9988 13.0789 17.1585ZM10.8452 17.1585C10.8984 18.3094 10.4973 19.4351 9.72836 20.2931C9.37286 20.6856 8.9365 20.9963 8.44933 21.2039C7.96216 21.4115 7.43578 21.511 6.90645 21.4956C6.383 21.5066 5.86326 21.4053 5.38226 21.1986C4.90125 20.9918 4.47017 20.6843 4.11804 20.2968C3.34911 19.4388 2.94801 18.3131 3.00119 17.1622C2.9501 16.0194 3.35137 14.9026 4.11804 14.0536C4.4684 13.6622 4.89854 13.3503 5.37952 13.139C5.8605 12.9278 6.38116 12.822 6.90645 12.8288C7.43208 12.821 7.95329 12.9259 8.43493 13.1366C8.91657 13.3472 9.34747 13.6586 9.69858 14.0499C10.4693 14.8971 10.8747 16.0141 10.8266 17.1585H10.8452Z" fill="white"/>
<path d="M21.4367 18.1083C22.1583 18.1083 22.7434 17.5233 22.7434 16.8016C22.7434 16.0799 22.1583 15.4949 21.4367 15.4949C20.715 15.4949 20.1299 16.0799 20.1299 16.8016C20.1299 17.5233 20.715 18.1083 21.4367 18.1083Z" fill="white"/>
<path d="M7.71803 18.1083C8.43971 18.1083 9.02475 17.5233 9.02475 16.8016C9.02475 16.0799 8.43971 15.4949 7.71803 15.4949C6.99635 15.4949 6.41132 16.0799 6.41132 16.8016C6.41132 17.5233 6.99635 18.1083 7.71803 18.1083Z" fill="white"/>
<path d="M40.9372 18.1211C40.4019 18.1211 39.9077 18.0181 39.4135 17.8122C38.0957 17.2563 37.0044 15.8973 37.0044 14.0029C37.0044 13.4469 37.1073 12.9116 37.3132 12.3968C37.8692 11.0584 39.084 9.90527 40.9372 9.90527C42.2962 9.90527 43.3052 10.5024 43.8818 11.3055C44.0259 11.532 44.17 11.8614 44.273 12.0879H47.8764C47.547 10.4818 46.7439 9.20517 45.4467 8.2374C44.17 7.29021 42.6669 6.79602 40.9372 6.79602C38.734 6.79602 36.9426 7.74321 35.7483 8.89631C34.5746 10.07 33.6068 11.8202 33.6068 14.0029C33.6068 16.2061 34.5746 17.977 35.7483 19.1301C36.9426 20.3037 38.734 21.2097 40.9372 21.2097C41.8021 21.2097 42.6257 21.0862 43.4082 20.8391C45.7555 20.1184 47.444 18.3476 47.897 15.7325H44.3759C43.8612 17.1533 42.6875 18.1211 40.9372 18.1211ZM55.2207 13.2204C56.3326 13.2204 57.0121 14.1264 57.0121 15.2589V20.9009H60.286V14.5588C60.286 12.0879 58.7623 10.2553 56.312 10.2553C55.0147 10.2553 53.944 10.6877 53.0998 11.5526V6.07534H49.8052V20.9009H53.0998V16.1032C53.0998 14.4559 53.7175 13.2204 55.2207 13.2204ZM67.6193 10.2965C65.8897 10.2965 64.5101 10.9554 63.5629 11.8202C62.6157 12.6851 61.895 14.0235 61.895 15.7531C61.895 17.5651 62.7599 19.0889 63.8718 19.9537C64.9219 20.7362 66.0544 21.2097 67.6193 21.2097C68.3606 21.2097 69.0813 21.0656 69.7814 20.8185C71.6964 20.0772 73.2819 18.3682 73.2819 15.7531C73.2819 14.9707 73.0966 14.1882 72.7671 13.4469C71.9641 11.6349 70.0491 10.2965 67.6193 10.2965ZM65.0661 15.7531C65.0661 14.25 66.1368 13.0763 67.6193 13.0763C68.9989 13.0763 70.1109 14.3117 70.1109 15.7531C70.1109 17.2151 69.0195 18.43 67.6193 18.43C66.1574 18.43 65.0661 17.2563 65.0661 15.7531ZM80.0262 10.2965C78.2966 10.2965 76.917 10.9554 75.9698 11.8202C75.0226 12.6851 74.3019 14.0235 74.3019 15.7531C74.3019 17.5651 75.1668 19.0889 76.2787 19.9537C77.3288 20.7362 78.4613 21.2097 80.0262 21.2097C80.7675 21.2097 81.4882 21.0656 82.1883 20.8185C84.1033 20.0772 85.6888 18.3682 85.6888 15.7531C85.6888 14.9707 85.5035 14.1882 85.174 13.4469C84.371 11.6349 82.456 10.2965 80.0262 10.2965ZM77.473 15.7531C77.473 14.25 78.5437 13.0763 80.0262 13.0763C81.4058 13.0763 82.5178 14.3117 82.5178 15.7531C82.5178 17.2151 81.4264 18.43 80.0262 18.43C78.5643 18.43 77.473 17.2563 77.473 15.7531ZM92.289 18.2446C91.1565 18.2446 90.5182 17.318 90.5182 16.2061V10.5642H87.2442V16.9062C87.2442 17.5445 87.3266 18.1211 87.5325 18.6565C88.0473 20.139 89.2827 21.2097 91.2389 21.2097C92.6185 21.2097 93.7304 20.6744 94.4305 19.9125V20.9009H97.725V10.5642H94.4305V15.3619C94.4305 17.0504 93.8127 18.2446 92.289 18.2446ZM99.5831 13.7558C99.5831 15.5678 100.963 16.4738 102.589 16.7621L104.69 17.1739C105.39 17.2974 105.719 17.5651 105.719 17.9358C105.719 18.5123 105.04 18.7594 104.381 18.7594C103.784 18.7594 103.145 18.5947 102.878 18.224L99.3566 18.2035C99.7066 20.3243 101.683 21.2097 104.216 21.2097C106.687 21.2097 108.89 20.1802 108.89 17.7299C108.89 15.959 107.634 14.9707 106.028 14.6206L103.598 14.1264C103.084 14.0235 102.816 13.7764 102.816 13.4057C102.816 12.8704 103.351 12.6027 103.99 12.6027C104.628 12.6027 105.122 12.8498 105.431 13.1998L108.725 13.2204C108.314 11.3261 106.44 10.2553 104.031 10.2553C101.663 10.2553 99.5831 11.4908 99.5831 13.7558ZM120.537 17.9975L117.614 17.4004C117.181 18.1829 116.44 18.5947 115.41 18.5947C114.195 18.5947 113.434 17.6475 113.186 16.5974H120.764L120.785 15.7325C120.764 14.9295 120.62 14.1882 120.332 13.5087C119.59 11.6761 117.943 10.2759 115.431 10.2759C114.71 10.2759 114.01 10.3995 113.331 10.6671C111.457 11.429 109.954 13.1381 109.954 15.7531C109.954 17.4622 110.654 18.8212 111.56 19.7066C112.466 20.5714 113.784 21.2303 115.41 21.2303C118.128 21.2303 119.755 19.9125 120.537 17.9975ZM117.511 14.5794H113.248C113.516 13.694 114.36 12.9527 115.431 12.9527C116.543 12.9527 117.264 13.6528 117.511 14.5794Z" fill="white"/>
<path d="M21.9207 9.21022C21.8798 8.68563 21.722 8.17684 21.4591 7.72108C21.0995 7.06736 20.621 6.48656 20.0481 6.00858C18.734 4.89172 16.6976 4.00196 13.697 4.00196H13.5964C10.607 3.99824 8.55571 4.88428 7.24527 6.00485C6.67204 6.48394 6.19349 7.06602 5.83431 7.72108C5.55552 8.19719 5.39587 8.7336 5.36896 9.28467C5.87267 9.16495 6.38874 9.10497 6.90649 9.10598C7.10752 9.10598 7.30111 9.10598 7.4947 9.13204C7.54045 8.98753 7.60031 8.84787 7.6734 8.71508C7.91229 8.28979 8.22637 7.91137 8.60038 7.59823C9.49014 6.85366 11.0388 6.10909 13.5964 6.10909H13.697C16.2583 6.10909 17.7921 6.85366 18.693 7.59823C19.067 7.91137 19.3811 8.28979 19.62 8.71508C19.6931 8.84787 19.7529 8.98753 19.7987 9.13204C19.7982 9.13947 19.7982 9.14694 19.7987 9.15438C20.0658 9.12482 20.3341 9.10867 20.6028 9.10598C21.0445 9.09771 21.4859 9.13262 21.9207 9.21022Z" fill="white"/>
</svg>
